<mxfile host="app.diagrams.net" agent="Mozilla/5.0 (Windows NT 10.0; Win64; x64) AppleWebKit/537.36 (KHTML, like Gecko) Chrome/138.0.0.0 Safari/537.36" version="28.0.4">
  <diagram name="Page-1" id="l0Ws9JdOYV0p3ujaHNMt">
    <mxGraphModel dx="4458" dy="1980" grid="1" gridSize="10" guides="1" tooltips="1" connect="1" arrows="1" fold="1" page="1" pageScale="1" pageWidth="850" pageHeight="1100" math="0" shadow="0">
      <root>
        <mxCell id="0" />
        <mxCell id="1" parent="0" />
        <mxCell id="5cQ5xoeOof3CIsawwjt8-4" value="" style="edgeStyle=orthogonalEdgeStyle;rounded=0;orthogonalLoop=1;jettySize=auto;html=1;entryX=0.5;entryY=0;entryDx=0;entryDy=0;" edge="1" parent="1" source="5cQ5xoeOof3CIsawwjt8-1" target="5cQ5xoeOof3CIsawwjt8-5">
          <mxGeometry relative="1" as="geometry">
            <mxPoint x="500" y="200" as="targetPoint" />
            <Array as="points">
              <mxPoint x="430" y="170" />
            </Array>
          </mxGeometry>
        </mxCell>
        <mxCell id="5cQ5xoeOof3CIsawwjt8-1" value="&lt;font style=&quot;font-size: 18px;&quot;&gt;เริ่มต้น&lt;/font&gt;" style="ellipse;whiteSpace=wrap;html=1;" vertex="1" parent="1">
          <mxGeometry x="352.32" y="10" width="155" height="50" as="geometry" />
        </mxCell>
        <mxCell id="5cQ5xoeOof3CIsawwjt8-16" value="" style="edgeStyle=orthogonalEdgeStyle;rounded=0;orthogonalLoop=1;jettySize=auto;html=1;" edge="1" parent="1" source="5cQ5xoeOof3CIsawwjt8-3" target="5cQ5xoeOof3CIsawwjt8-14">
          <mxGeometry relative="1" as="geometry" />
        </mxCell>
        <mxCell id="5cQ5xoeOof3CIsawwjt8-3" value="&lt;div&gt;&lt;font style=&quot;font-size: 18px;&quot;&gt;printf แสดงรายการสินค้าต่างๆ&lt;/font&gt;&lt;/div&gt;&lt;div&gt;&lt;br&gt;&lt;/div&gt;&lt;div&gt;&lt;br&gt;&lt;/div&gt;&lt;div&gt;&lt;font style=&quot;font-size: 18px;&quot;&gt;ตู้ตะพาบลอยยินดีต้อนรับ&lt;/font&gt;&lt;/div&gt;&lt;div&gt;&lt;font style=&quot;font-size: 18px;&quot;&gt;&lt;br&gt;&lt;/font&gt;&lt;/div&gt;&lt;div&gt;&lt;div&gt;&lt;font style=&quot;font-size: 14px;&quot;&gt;รายการสินค้า:&lt;/font&gt;&lt;/div&gt;&lt;div&gt;&lt;font size=&quot;3&quot;&gt;-----------------------&lt;/font&gt;&lt;/div&gt;&lt;div&gt;&lt;font size=&quot;3&quot;&gt;ประเภทน้ำ:&lt;/font&gt;&lt;/div&gt;&lt;div&gt;&lt;font size=&quot;3&quot;&gt;โค้ก&amp;nbsp;&lt;/font&gt;&lt;span style=&quot;background-color: transparent;&quot;&gt;&lt;font size=&quot;3&quot;&gt;กระป๋องละ&amp;nbsp;&lt;/font&gt;&lt;/span&gt;&lt;span style=&quot;font-size: medium; background-color: transparent; color: light-dark(rgb(0, 0, 0), rgb(255, 255, 255));&quot;&gt;10 บาท&lt;/span&gt;&lt;/div&gt;&lt;div&gt;&lt;font size=&quot;3&quot;&gt;น้ำเขียว&amp;nbsp;&lt;/font&gt;&lt;span style=&quot;background-color: transparent;&quot;&gt;&lt;font size=&quot;3&quot;&gt;กระป๋องละ&lt;/font&gt;&lt;/span&gt;&lt;span style=&quot;font-size: medium; background-color: transparent; color: light-dark(rgb(0, 0, 0), rgb(255, 255, 255));&quot;&gt;&amp;nbsp;12 บาท&lt;/span&gt;&lt;/div&gt;&lt;div&gt;&lt;font size=&quot;3&quot;&gt;&amp;nbsp;อเมริกาโน่ 30 บาท&lt;/font&gt;&lt;/div&gt;&lt;div&gt;&lt;font size=&quot;3&quot;&gt;ลาเต้ 35 บาท&lt;/font&gt;&lt;/div&gt;&lt;div&gt;&lt;font size=&quot;3&quot;&gt;&lt;br&gt;&lt;/font&gt;&lt;/div&gt;&lt;div&gt;&lt;font size=&quot;3&quot;&gt;ประเภทขนม:&lt;/font&gt;&lt;/div&gt;&lt;div&gt;&lt;font size=&quot;3&quot;&gt;เมล็ดทานตะวัน 13 บาท&lt;/font&gt;&lt;/div&gt;&lt;div&gt;&lt;font size=&quot;3&quot;&gt;ถั่วแปบ 20 บาท&lt;/font&gt;&lt;/div&gt;&lt;div&gt;&lt;font size=&quot;3&quot;&gt;จิ้มส้มหมก 15 บาท&lt;/font&gt;&lt;/div&gt;&lt;/div&gt;" style="shape=parallelogram;perimeter=parallelogramPerimeter;whiteSpace=wrap;html=1;fixedSize=1;" vertex="1" parent="1">
          <mxGeometry x="217.42" y="360" width="425.81" height="340" as="geometry" />
        </mxCell>
        <mxCell id="5cQ5xoeOof3CIsawwjt8-13" value="" style="edgeStyle=orthogonalEdgeStyle;rounded=0;orthogonalLoop=1;jettySize=auto;html=1;" edge="1" parent="1" source="5cQ5xoeOof3CIsawwjt8-5" target="5cQ5xoeOof3CIsawwjt8-3">
          <mxGeometry relative="1" as="geometry" />
        </mxCell>
        <mxCell id="5cQ5xoeOof3CIsawwjt8-5" value="&lt;font style=&quot;font-size: 18px;&quot;&gt;สร้างตัวแปรต่างๆ&lt;/font&gt;&lt;div&gt;&lt;span style=&quot;font-size: 14px;&quot;&gt;&lt;br&gt;&lt;/span&gt;&lt;div&gt;&lt;span style=&quot;font-size: 14px;&quot;&gt;ตัวแปรที่ใช้เก็บค่าเงิน&lt;/span&gt;&lt;span style=&quot;font-size: 14px; background-color: transparent; color: light-dark(rgb(0, 0, 0), rgb(255, 255, 255));&quot;&gt;&amp;nbsp;&lt;/span&gt;&lt;/div&gt;&lt;div&gt;&lt;span style=&quot;font-size: 14px; background-color: transparent; color: light-dark(rgb(0, 0, 0), rgb(255, 255, 255));&quot;&gt;เช่น&lt;/span&gt;&lt;/div&gt;&lt;div&gt;&lt;div&gt;&lt;span style=&quot;font-size: 14px;&quot;&gt;ยอดรวม = 0&lt;/span&gt;&lt;/div&gt;&lt;div&gt;&lt;span style=&quot;font-size: 14px;&quot;&gt;จ่ายเงิน&amp;nbsp;&lt;/span&gt;&lt;span style=&quot;font-size: 14px; background-color: transparent; color: light-dark(rgb(0, 0, 0), rgb(255, 255, 255));&quot;&gt;= 0&lt;/span&gt;&lt;/div&gt;&lt;div&gt;&lt;span style=&quot;font-size: 14px;&quot;&gt;เงินทอน&amp;nbsp;&lt;/span&gt;&lt;span style=&quot;font-size: 14px; background-color: transparent; color: light-dark(rgb(0, 0, 0), rgb(255, 255, 255));&quot;&gt;= 0&lt;/span&gt;&lt;/div&gt;&lt;div&gt;&lt;span style=&quot;font-size: 14px; background-color: transparent; color: light-dark(rgb(0, 0, 0), rgb(255, 255, 255));&quot;&gt;&lt;br&gt;&lt;/span&gt;&lt;/div&gt;&lt;div&gt;&lt;span style=&quot;font-size: 14px;&quot;&gt;ตัวแปร รายการน้ำ &amp;amp; ขนม&lt;/span&gt;&lt;/div&gt;&lt;div&gt;&lt;span style=&quot;background-color: transparent; font-size: 14px;&quot;&gt;&amp;nbsp;&quot;โค้ก&quot;, &quot;น้ำเขียว&quot;, &quot;อเมริกาโน่&quot;, &quot;ลาเต้&quot;&amp;nbsp;&lt;/span&gt;&lt;/div&gt;&lt;div&gt;&lt;span style=&quot;background-color: transparent; color: light-dark(rgb(0, 0, 0), rgb(255, 255, 255)); font-size: 14px;&quot;&gt;&#39;&lt;/span&gt;&lt;span style=&quot;background-color: transparent; color: light-dark(rgb(0, 0, 0), rgb(255, 255, 255)); text-wrap-mode: nowrap; font-family: Sarabun; font-size: 14px; text-align: left;&quot;&gt;เมล็ดทานตะวัน&lt;/span&gt;&lt;span style=&quot;background-color: transparent; color: light-dark(rgb(0, 0, 0), rgb(255, 255, 255)); font-size: 14px;&quot;&gt;&#39; , &#39;&lt;/span&gt;&lt;span style=&quot;background-color: transparent; color: light-dark(rgb(0, 0, 0), rgb(255, 255, 255)); text-wrap-mode: nowrap; font-family: Sarabun; font-size: 14px; text-align: left;&quot;&gt;ถั่วแปบ&lt;/span&gt;&lt;span style=&quot;background-color: transparent; color: light-dark(rgb(0, 0, 0), rgb(255, 255, 255)); font-size: 14px;&quot;&gt;&#39; , &#39;&lt;/span&gt;&lt;span style=&quot;background-color: transparent; color: light-dark(rgb(0, 0, 0), rgb(255, 255, 255)); text-wrap-mode: nowrap; font-family: Sarabun; font-size: 14px; text-align: left;&quot;&gt;จิ้นส้มหมก&lt;/span&gt;&lt;span style=&quot;background-color: transparent; color: light-dark(rgb(0, 0, 0), rgb(255, 255, 255)); font-size: 14px;&quot;&gt;&#39;&lt;/span&gt;&lt;/div&gt;&lt;div&gt;&lt;span style=&quot;background-color: transparent; color: light-dark(rgb(0, 0, 0), rgb(255, 255, 255)); font-size: 14px;&quot;&gt;รายการอาหารทั้งหมด&lt;/span&gt;&lt;/div&gt;&lt;/div&gt;&lt;/div&gt;&lt;div&gt;&lt;font style=&quot;font-size: 14px;&quot;&gt;แบงค์&amp;nbsp; เหรียญ&lt;/font&gt;&lt;/div&gt;" style="rounded=0;whiteSpace=wrap;html=1;" vertex="1" parent="1">
          <mxGeometry x="180" y="90" width="500" height="240" as="geometry" />
        </mxCell>
        <mxCell id="5cQ5xoeOof3CIsawwjt8-90" value="" style="edgeStyle=orthogonalEdgeStyle;rounded=0;orthogonalLoop=1;jettySize=auto;html=1;" edge="1" parent="1" source="5cQ5xoeOof3CIsawwjt8-7" target="5cQ5xoeOof3CIsawwjt8-21">
          <mxGeometry relative="1" as="geometry" />
        </mxCell>
        <mxCell id="5cQ5xoeOof3CIsawwjt8-7" value="&lt;font style=&quot;font-size: 14px;&quot;&gt;scanf รับค่าเลือกเมนูที่เลือก จากผู้ใช้&lt;/font&gt;" style="shape=parallelogram;perimeter=parallelogramPerimeter;whiteSpace=wrap;html=1;fixedSize=1;" vertex="1" parent="1">
          <mxGeometry x="306.89" y="820" width="246.87" height="80" as="geometry" />
        </mxCell>
        <mxCell id="5cQ5xoeOof3CIsawwjt8-17" value="" style="edgeStyle=orthogonalEdgeStyle;rounded=0;orthogonalLoop=1;jettySize=auto;html=1;" edge="1" parent="1" source="5cQ5xoeOof3CIsawwjt8-14" target="5cQ5xoeOof3CIsawwjt8-7">
          <mxGeometry relative="1" as="geometry" />
        </mxCell>
        <mxCell id="5cQ5xoeOof3CIsawwjt8-14" value="" style="ellipse;whiteSpace=wrap;html=1;aspect=fixed;" vertex="1" parent="1">
          <mxGeometry x="395.32" y="730" width="70" height="70" as="geometry" />
        </mxCell>
        <mxCell id="5cQ5xoeOof3CIsawwjt8-95" value="" style="edgeStyle=orthogonalEdgeStyle;rounded=0;orthogonalLoop=1;jettySize=auto;html=1;" edge="1" parent="1" source="5cQ5xoeOof3CIsawwjt8-21" target="5cQ5xoeOof3CIsawwjt8-94">
          <mxGeometry relative="1" as="geometry" />
        </mxCell>
        <mxCell id="5cQ5xoeOof3CIsawwjt8-104" value="" style="edgeStyle=orthogonalEdgeStyle;rounded=0;orthogonalLoop=1;jettySize=auto;html=1;entryX=0.5;entryY=0;entryDx=0;entryDy=0;" edge="1" parent="1" source="5cQ5xoeOof3CIsawwjt8-21" target="5cQ5xoeOof3CIsawwjt8-98">
          <mxGeometry relative="1" as="geometry">
            <mxPoint x="640" y="1000" as="targetPoint" />
          </mxGeometry>
        </mxCell>
        <mxCell id="5cQ5xoeOof3CIsawwjt8-21" value="&lt;font style=&quot;font-size: 14px;&quot;&gt;ลูกค้าเลือก&lt;/font&gt;&lt;div&gt;&lt;font style=&quot;font-size: 14px;&quot;&gt;ซื้อสินค้าใช้หรือไม่&lt;/font&gt;&lt;/div&gt;" style="rhombus;whiteSpace=wrap;html=1;" vertex="1" parent="1">
          <mxGeometry x="342.07" y="970" width="176.5" height="100" as="geometry" />
        </mxCell>
        <mxCell id="5cQ5xoeOof3CIsawwjt8-59" style="edgeStyle=orthogonalEdgeStyle;rounded=0;orthogonalLoop=1;jettySize=auto;html=1;exitX=0.5;exitY=1;exitDx=0;exitDy=0;entryX=0.5;entryY=0;entryDx=0;entryDy=0;" edge="1" parent="1" source="5cQ5xoeOof3CIsawwjt8-60" target="5cQ5xoeOof3CIsawwjt8-62">
          <mxGeometry relative="1" as="geometry" />
        </mxCell>
        <mxCell id="5cQ5xoeOof3CIsawwjt8-60" value="&lt;font style=&quot;font-size: 12px;&quot;&gt;printf รายการสินค้าที่เลือก&lt;/font&gt;" style="shape=parallelogram;perimeter=parallelogramPerimeter;whiteSpace=wrap;html=1;fixedSize=1;" vertex="1" parent="1">
          <mxGeometry x="343.16" y="1216.53" width="174.32" height="36.95" as="geometry" />
        </mxCell>
        <mxCell id="5cQ5xoeOof3CIsawwjt8-166" value="" style="edgeStyle=orthogonalEdgeStyle;rounded=0;orthogonalLoop=1;jettySize=auto;html=1;" edge="1" parent="1" source="5cQ5xoeOof3CIsawwjt8-62" target="5cQ5xoeOof3CIsawwjt8-78">
          <mxGeometry relative="1" as="geometry" />
        </mxCell>
        <mxCell id="5cQ5xoeOof3CIsawwjt8-169" style="edgeStyle=orthogonalEdgeStyle;rounded=0;orthogonalLoop=1;jettySize=auto;html=1;entryX=0;entryY=0.5;entryDx=0;entryDy=0;" edge="1" parent="1" source="5cQ5xoeOof3CIsawwjt8-62" target="5cQ5xoeOof3CIsawwjt8-14">
          <mxGeometry relative="1" as="geometry">
            <Array as="points">
              <mxPoint x="260" y="1339" />
              <mxPoint x="260" y="765" />
            </Array>
          </mxGeometry>
        </mxCell>
        <mxCell id="5cQ5xoeOof3CIsawwjt8-62" value="&lt;font style=&quot;font-size: 14px;&quot;&gt;ลูกค้าเลือก&lt;/font&gt;&lt;div&gt;&lt;font size=&quot;3&quot; style=&quot;&quot;&gt;ซื้อสินค้าเพิ่มหรือไม่&lt;/font&gt;&lt;/div&gt;" style="rhombus;whiteSpace=wrap;html=1;" vertex="1" parent="1">
          <mxGeometry x="325.16" y="1290" width="210.32" height="98.59" as="geometry" />
        </mxCell>
        <mxCell id="5cQ5xoeOof3CIsawwjt8-198" value="" style="edgeStyle=orthogonalEdgeStyle;rounded=0;orthogonalLoop=1;jettySize=auto;html=1;" edge="1" parent="1" source="5cQ5xoeOof3CIsawwjt8-78" target="5cQ5xoeOof3CIsawwjt8-197">
          <mxGeometry relative="1" as="geometry" />
        </mxCell>
        <mxCell id="5cQ5xoeOof3CIsawwjt8-78" value="&lt;font style=&quot;font-size: 14px;&quot;&gt;printf รายการสินค้าทั้งหมดที่เลือก&lt;/font&gt;&lt;div&gt;&lt;font size=&quot;3&quot;&gt;และ ยอดรวม&lt;/font&gt;&lt;/div&gt;" style="shape=parallelogram;perimeter=parallelogramPerimeter;whiteSpace=wrap;html=1;fixedSize=1;" vertex="1" parent="1">
          <mxGeometry x="311.95000000000005" y="1435" width="236.74" height="65" as="geometry" />
        </mxCell>
        <mxCell id="5cQ5xoeOof3CIsawwjt8-92" value="ไม่" style="text;html=1;align=center;verticalAlign=middle;resizable=0;points=[];autosize=1;strokeColor=none;fillColor=none;" vertex="1" parent="1">
          <mxGeometry x="445.64" y="1070" width="40" height="30" as="geometry" />
        </mxCell>
        <mxCell id="5cQ5xoeOof3CIsawwjt8-93" value="ใช้" style="text;html=1;align=center;verticalAlign=middle;resizable=0;points=[];autosize=1;strokeColor=none;fillColor=none;" vertex="1" parent="1">
          <mxGeometry x="547.78" y="980" width="40" height="30" as="geometry" />
        </mxCell>
        <mxCell id="5cQ5xoeOof3CIsawwjt8-165" value="" style="edgeStyle=orthogonalEdgeStyle;rounded=0;orthogonalLoop=1;jettySize=auto;html=1;" edge="1" parent="1" source="5cQ5xoeOof3CIsawwjt8-94" target="5cQ5xoeOof3CIsawwjt8-60">
          <mxGeometry relative="1" as="geometry" />
        </mxCell>
        <mxCell id="5cQ5xoeOof3CIsawwjt8-94" value="" style="ellipse;whiteSpace=wrap;html=1;aspect=fixed;" vertex="1" parent="1">
          <mxGeometry x="395.32" y="1100" width="70" height="70" as="geometry" />
        </mxCell>
        <mxCell id="5cQ5xoeOof3CIsawwjt8-102" value="" style="edgeStyle=orthogonalEdgeStyle;rounded=0;orthogonalLoop=1;jettySize=auto;html=1;" edge="1" parent="1" source="5cQ5xoeOof3CIsawwjt8-98" target="5cQ5xoeOof3CIsawwjt8-101">
          <mxGeometry relative="1" as="geometry" />
        </mxCell>
        <mxCell id="5cQ5xoeOof3CIsawwjt8-109" value="" style="edgeStyle=orthogonalEdgeStyle;rounded=0;orthogonalLoop=1;jettySize=auto;html=1;entryX=0.5;entryY=0;entryDx=0;entryDy=0;" edge="1" parent="1" source="5cQ5xoeOof3CIsawwjt8-98" target="5cQ5xoeOof3CIsawwjt8-106">
          <mxGeometry relative="1" as="geometry" />
        </mxCell>
        <mxCell id="5cQ5xoeOof3CIsawwjt8-98" value="&lt;span style=&quot;font-family: Sarabun; text-align: left; text-wrap-mode: nowrap;&quot;&gt;&lt;font style=&quot;font-size: 12px;&quot;&gt;โค้ก ใช้หรือไม่&lt;/font&gt;&lt;/span&gt;" style="rhombus;whiteSpace=wrap;html=1;" vertex="1" parent="1">
          <mxGeometry x="570" y="1040" width="140" height="70" as="geometry" />
        </mxCell>
        <mxCell id="5cQ5xoeOof3CIsawwjt8-100" value="ใช้" style="text;html=1;align=center;verticalAlign=middle;resizable=0;points=[];autosize=1;strokeColor=none;fillColor=none;" vertex="1" parent="1">
          <mxGeometry x="600" y="1110" width="40" height="30" as="geometry" />
        </mxCell>
        <mxCell id="5cQ5xoeOof3CIsawwjt8-156" value="" style="edgeStyle=orthogonalEdgeStyle;rounded=0;orthogonalLoop=1;jettySize=auto;html=1;" edge="1" parent="1" source="5cQ5xoeOof3CIsawwjt8-101" target="5cQ5xoeOof3CIsawwjt8-94">
          <mxGeometry relative="1" as="geometry">
            <Array as="points">
              <mxPoint x="560" y="1180" />
              <mxPoint x="560" y="1135" />
            </Array>
          </mxGeometry>
        </mxCell>
        <mxCell id="5cQ5xoeOof3CIsawwjt8-101" value="โค้ก + 1&lt;div&gt;ยอดรวม + 10&lt;/div&gt;" style="whiteSpace=wrap;html=1;" vertex="1" parent="1">
          <mxGeometry x="580" y="1150" width="120" height="60" as="geometry" />
        </mxCell>
        <mxCell id="5cQ5xoeOof3CIsawwjt8-103" value="ไม่" style="text;html=1;align=center;verticalAlign=middle;resizable=0;points=[];autosize=1;strokeColor=none;fillColor=none;" vertex="1" parent="1">
          <mxGeometry x="730" y="1040" width="40" height="30" as="geometry" />
        </mxCell>
        <mxCell id="5cQ5xoeOof3CIsawwjt8-105" value="" style="edgeStyle=orthogonalEdgeStyle;rounded=0;orthogonalLoop=1;jettySize=auto;html=1;" edge="1" parent="1" source="5cQ5xoeOof3CIsawwjt8-106" target="5cQ5xoeOof3CIsawwjt8-108">
          <mxGeometry relative="1" as="geometry" />
        </mxCell>
        <mxCell id="5cQ5xoeOof3CIsawwjt8-114" value="" style="edgeStyle=orthogonalEdgeStyle;rounded=0;orthogonalLoop=1;jettySize=auto;html=1;entryX=0.5;entryY=0;entryDx=0;entryDy=0;" edge="1" parent="1" source="5cQ5xoeOof3CIsawwjt8-106" target="5cQ5xoeOof3CIsawwjt8-111">
          <mxGeometry relative="1" as="geometry" />
        </mxCell>
        <mxCell id="5cQ5xoeOof3CIsawwjt8-106" value="&lt;span style=&quot;font-family: Sarabun; text-align: left; text-wrap-mode: nowrap;&quot;&gt;&lt;font style=&quot;font-size: 12px;&quot;&gt;น้ำเขียว ใช้หรือไม่&lt;/font&gt;&lt;/span&gt;" style="rhombus;whiteSpace=wrap;html=1;" vertex="1" parent="1">
          <mxGeometry x="730" y="1100" width="140" height="70" as="geometry" />
        </mxCell>
        <mxCell id="5cQ5xoeOof3CIsawwjt8-107" value="ใช้" style="text;html=1;align=center;verticalAlign=middle;resizable=0;points=[];autosize=1;strokeColor=none;fillColor=none;" vertex="1" parent="1">
          <mxGeometry x="760" y="1170" width="40" height="30" as="geometry" />
        </mxCell>
        <mxCell id="5cQ5xoeOof3CIsawwjt8-158" style="edgeStyle=orthogonalEdgeStyle;rounded=0;orthogonalLoop=1;jettySize=auto;html=1;entryX=1;entryY=0.5;entryDx=0;entryDy=0;" edge="1" parent="1" source="5cQ5xoeOof3CIsawwjt8-108" target="5cQ5xoeOof3CIsawwjt8-94">
          <mxGeometry relative="1" as="geometry">
            <Array as="points">
              <mxPoint x="560" y="1240" />
              <mxPoint x="560" y="1135" />
            </Array>
          </mxGeometry>
        </mxCell>
        <mxCell id="5cQ5xoeOof3CIsawwjt8-108" value="&lt;span style=&quot;font-family: Sarabun; text-align: left; text-wrap-mode: nowrap;&quot;&gt;น้ำเขียว&lt;/span&gt;&amp;nbsp;+ 1&lt;div&gt;ยอดรวม + 12&lt;/div&gt;" style="whiteSpace=wrap;html=1;" vertex="1" parent="1">
          <mxGeometry x="740" y="1210" width="120" height="60" as="geometry" />
        </mxCell>
        <mxCell id="5cQ5xoeOof3CIsawwjt8-110" value="" style="edgeStyle=orthogonalEdgeStyle;rounded=0;orthogonalLoop=1;jettySize=auto;html=1;" edge="1" parent="1" source="5cQ5xoeOof3CIsawwjt8-111" target="5cQ5xoeOof3CIsawwjt8-113">
          <mxGeometry relative="1" as="geometry" />
        </mxCell>
        <mxCell id="5cQ5xoeOof3CIsawwjt8-111" value="&lt;span style=&quot;font-family: Sarabun; text-align: left; text-wrap-mode: nowrap;&quot;&gt;&lt;font style=&quot;font-size: 12px;&quot;&gt;อเมริกาโน่ ใช้หรือไม่&lt;/font&gt;&lt;/span&gt;" style="rhombus;whiteSpace=wrap;html=1;" vertex="1" parent="1">
          <mxGeometry x="890" y="1160" width="140" height="70" as="geometry" />
        </mxCell>
        <mxCell id="5cQ5xoeOof3CIsawwjt8-112" value="ใช้" style="text;html=1;align=center;verticalAlign=middle;resizable=0;points=[];autosize=1;strokeColor=none;fillColor=none;" vertex="1" parent="1">
          <mxGeometry x="920" y="1225" width="40" height="30" as="geometry" />
        </mxCell>
        <mxCell id="5cQ5xoeOof3CIsawwjt8-159" style="edgeStyle=orthogonalEdgeStyle;rounded=0;orthogonalLoop=1;jettySize=auto;html=1;entryX=1;entryY=0.5;entryDx=0;entryDy=0;" edge="1" parent="1" source="5cQ5xoeOof3CIsawwjt8-113" target="5cQ5xoeOof3CIsawwjt8-94">
          <mxGeometry relative="1" as="geometry">
            <Array as="points">
              <mxPoint x="560" y="1290" />
              <mxPoint x="560" y="1135" />
            </Array>
          </mxGeometry>
        </mxCell>
        <mxCell id="5cQ5xoeOof3CIsawwjt8-113" value="&lt;span style=&quot;font-family: Sarabun; text-align: left; text-wrap-mode: nowrap;&quot;&gt;อเมริกาโน่&lt;/span&gt;&amp;nbsp;+ 1&lt;div&gt;ยอดรวม + 30&lt;/div&gt;" style="whiteSpace=wrap;html=1;" vertex="1" parent="1">
          <mxGeometry x="900" y="1260" width="120" height="60" as="geometry" />
        </mxCell>
        <mxCell id="5cQ5xoeOof3CIsawwjt8-115" value="ไม่" style="text;html=1;align=center;verticalAlign=middle;resizable=0;points=[];autosize=1;strokeColor=none;fillColor=none;" vertex="1" parent="1">
          <mxGeometry x="890" y="1100" width="40" height="30" as="geometry" />
        </mxCell>
        <mxCell id="5cQ5xoeOof3CIsawwjt8-122" value="" style="edgeStyle=orthogonalEdgeStyle;rounded=0;orthogonalLoop=1;jettySize=auto;html=1;entryX=0.5;entryY=0;entryDx=0;entryDy=0;" edge="1" parent="1" target="5cQ5xoeOof3CIsawwjt8-124">
          <mxGeometry relative="1" as="geometry">
            <mxPoint x="1030" y="1195" as="sourcePoint" />
          </mxGeometry>
        </mxCell>
        <mxCell id="5cQ5xoeOof3CIsawwjt8-123" value="" style="edgeStyle=orthogonalEdgeStyle;rounded=0;orthogonalLoop=1;jettySize=auto;html=1;" edge="1" parent="1" source="5cQ5xoeOof3CIsawwjt8-124" target="5cQ5xoeOof3CIsawwjt8-126">
          <mxGeometry relative="1" as="geometry" />
        </mxCell>
        <mxCell id="5cQ5xoeOof3CIsawwjt8-124" value="&lt;span style=&quot;font-family: Sarabun; text-align: left; text-wrap-mode: nowrap;&quot;&gt;&lt;font style=&quot;font-size: 12px;&quot;&gt;ลาเต้ ใช้หรือไม่&lt;/font&gt;&lt;/span&gt;" style="rhombus;whiteSpace=wrap;html=1;" vertex="1" parent="1">
          <mxGeometry x="1050" y="1220" width="140" height="70" as="geometry" />
        </mxCell>
        <mxCell id="5cQ5xoeOof3CIsawwjt8-125" value="ใช้" style="text;html=1;align=center;verticalAlign=middle;resizable=0;points=[];autosize=1;strokeColor=none;fillColor=none;" vertex="1" parent="1">
          <mxGeometry x="1080" y="1285" width="40" height="30" as="geometry" />
        </mxCell>
        <mxCell id="5cQ5xoeOof3CIsawwjt8-160" style="edgeStyle=orthogonalEdgeStyle;rounded=0;orthogonalLoop=1;jettySize=auto;html=1;entryX=1;entryY=0.5;entryDx=0;entryDy=0;" edge="1" parent="1" source="5cQ5xoeOof3CIsawwjt8-126" target="5cQ5xoeOof3CIsawwjt8-94">
          <mxGeometry relative="1" as="geometry">
            <Array as="points">
              <mxPoint x="560" y="1350" />
              <mxPoint x="560" y="1135" />
            </Array>
          </mxGeometry>
        </mxCell>
        <mxCell id="5cQ5xoeOof3CIsawwjt8-126" value="&lt;span style=&quot;font-family: Sarabun; text-align: left; text-wrap-mode: nowrap;&quot;&gt;ลาเต้&lt;/span&gt;&amp;nbsp;+ 1&lt;div&gt;ยอดรวม + 35&lt;/div&gt;" style="whiteSpace=wrap;html=1;" vertex="1" parent="1">
          <mxGeometry x="1060" y="1320" width="120" height="60" as="geometry" />
        </mxCell>
        <mxCell id="5cQ5xoeOof3CIsawwjt8-127" value="ไม่" style="text;html=1;align=center;verticalAlign=middle;resizable=0;points=[];autosize=1;strokeColor=none;fillColor=none;" vertex="1" parent="1">
          <mxGeometry x="1050" y="1160" width="40" height="30" as="geometry" />
        </mxCell>
        <mxCell id="5cQ5xoeOof3CIsawwjt8-129" value="" style="edgeStyle=orthogonalEdgeStyle;rounded=0;orthogonalLoop=1;jettySize=auto;html=1;entryX=0.5;entryY=0;entryDx=0;entryDy=0;" edge="1" parent="1" target="5cQ5xoeOof3CIsawwjt8-131">
          <mxGeometry relative="1" as="geometry">
            <mxPoint x="1190" y="1255" as="sourcePoint" />
          </mxGeometry>
        </mxCell>
        <mxCell id="5cQ5xoeOof3CIsawwjt8-130" value="" style="edgeStyle=orthogonalEdgeStyle;rounded=0;orthogonalLoop=1;jettySize=auto;html=1;" edge="1" parent="1" source="5cQ5xoeOof3CIsawwjt8-131" target="5cQ5xoeOof3CIsawwjt8-133">
          <mxGeometry relative="1" as="geometry" />
        </mxCell>
        <mxCell id="5cQ5xoeOof3CIsawwjt8-131" value="&lt;span style=&quot;text-align: left;&quot;&gt;&lt;font style=&quot;&quot;&gt;&lt;font face=&quot;Sarabun&quot;&gt;&lt;span style=&quot;text-wrap-mode: nowrap;&quot;&gt;เมล็ดทานตะวัน&amp;nbsp;ใช้หรือไม่&lt;/span&gt;&lt;/font&gt;&lt;/font&gt;&lt;/span&gt;" style="rhombus;whiteSpace=wrap;html=1;" vertex="1" parent="1">
          <mxGeometry x="1210" y="1280" width="140" height="70" as="geometry" />
        </mxCell>
        <mxCell id="5cQ5xoeOof3CIsawwjt8-132" value="ใช้" style="text;html=1;align=center;verticalAlign=middle;resizable=0;points=[];autosize=1;strokeColor=none;fillColor=none;" vertex="1" parent="1">
          <mxGeometry x="1240" y="1345" width="40" height="30" as="geometry" />
        </mxCell>
        <mxCell id="5cQ5xoeOof3CIsawwjt8-161" style="edgeStyle=orthogonalEdgeStyle;rounded=0;orthogonalLoop=1;jettySize=auto;html=1;entryX=1;entryY=0.5;entryDx=0;entryDy=0;" edge="1" parent="1" source="5cQ5xoeOof3CIsawwjt8-133" target="5cQ5xoeOof3CIsawwjt8-94">
          <mxGeometry relative="1" as="geometry">
            <Array as="points">
              <mxPoint x="560" y="1410" />
              <mxPoint x="560" y="1135" />
            </Array>
          </mxGeometry>
        </mxCell>
        <mxCell id="5cQ5xoeOof3CIsawwjt8-133" value="&lt;div style=&quot;text-align: left;&quot;&gt;&lt;span style=&quot;background-color: transparent; text-wrap-mode: nowrap;&quot;&gt;&lt;font face=&quot;Sarabun&quot;&gt;เมล็ดทานตะวัน&lt;/font&gt;&lt;/span&gt;&lt;span style=&quot;background-color: transparent; color: light-dark(rgb(0, 0, 0), rgb(255, 255, 255));&quot;&gt;&amp;nbsp;+ 1&lt;/span&gt;&lt;/div&gt;&lt;div&gt;ยอดรวม + 13&lt;/div&gt;" style="whiteSpace=wrap;html=1;" vertex="1" parent="1">
          <mxGeometry x="1220" y="1380" width="120" height="60" as="geometry" />
        </mxCell>
        <mxCell id="5cQ5xoeOof3CIsawwjt8-134" value="ไม่" style="text;html=1;align=center;verticalAlign=middle;resizable=0;points=[];autosize=1;strokeColor=none;fillColor=none;" vertex="1" parent="1">
          <mxGeometry x="1210" y="1220" width="40" height="30" as="geometry" />
        </mxCell>
        <mxCell id="5cQ5xoeOof3CIsawwjt8-135" value="" style="edgeStyle=orthogonalEdgeStyle;rounded=0;orthogonalLoop=1;jettySize=auto;html=1;entryX=0.5;entryY=0;entryDx=0;entryDy=0;" edge="1" parent="1" target="5cQ5xoeOof3CIsawwjt8-137">
          <mxGeometry relative="1" as="geometry">
            <mxPoint x="1350" y="1315" as="sourcePoint" />
          </mxGeometry>
        </mxCell>
        <mxCell id="5cQ5xoeOof3CIsawwjt8-136" value="" style="edgeStyle=orthogonalEdgeStyle;rounded=0;orthogonalLoop=1;jettySize=auto;html=1;" edge="1" parent="1" source="5cQ5xoeOof3CIsawwjt8-137" target="5cQ5xoeOof3CIsawwjt8-139">
          <mxGeometry relative="1" as="geometry" />
        </mxCell>
        <mxCell id="5cQ5xoeOof3CIsawwjt8-137" value="&lt;span style=&quot;text-align: left;&quot;&gt;&lt;font style=&quot;&quot;&gt;&lt;font face=&quot;Sarabun&quot;&gt;&lt;span style=&quot;text-wrap-mode: nowrap;&quot;&gt;ถั่วแปบ&amp;nbsp;ใช้หรือไม่&lt;/span&gt;&lt;/font&gt;&lt;/font&gt;&lt;/span&gt;" style="rhombus;whiteSpace=wrap;html=1;" vertex="1" parent="1">
          <mxGeometry x="1370" y="1340" width="140" height="70" as="geometry" />
        </mxCell>
        <mxCell id="5cQ5xoeOof3CIsawwjt8-138" value="ใช้" style="text;html=1;align=center;verticalAlign=middle;resizable=0;points=[];autosize=1;strokeColor=none;fillColor=none;" vertex="1" parent="1">
          <mxGeometry x="1400" y="1405" width="40" height="30" as="geometry" />
        </mxCell>
        <mxCell id="5cQ5xoeOof3CIsawwjt8-162" style="edgeStyle=orthogonalEdgeStyle;rounded=0;orthogonalLoop=1;jettySize=auto;html=1;entryX=1;entryY=0.5;entryDx=0;entryDy=0;" edge="1" parent="1" source="5cQ5xoeOof3CIsawwjt8-139" target="5cQ5xoeOof3CIsawwjt8-94">
          <mxGeometry relative="1" as="geometry">
            <Array as="points">
              <mxPoint x="560" y="1470" />
              <mxPoint x="560" y="1135" />
            </Array>
          </mxGeometry>
        </mxCell>
        <mxCell id="5cQ5xoeOof3CIsawwjt8-139" value="&lt;div style=&quot;text-align: left;&quot;&gt;&lt;span style=&quot;background-color: transparent; text-wrap-mode: nowrap;&quot;&gt;&lt;font face=&quot;Sarabun&quot;&gt;ถั่วแปบ&lt;/font&gt;&lt;/span&gt;&lt;span style=&quot;background-color: transparent; color: light-dark(rgb(0, 0, 0), rgb(255, 255, 255));&quot;&gt;&amp;nbsp;+ 1&lt;/span&gt;&lt;/div&gt;&lt;div&gt;ยอดรวม + 20&lt;/div&gt;" style="whiteSpace=wrap;html=1;" vertex="1" parent="1">
          <mxGeometry x="1380" y="1440" width="120" height="60" as="geometry" />
        </mxCell>
        <mxCell id="5cQ5xoeOof3CIsawwjt8-140" value="ไม่" style="text;html=1;align=center;verticalAlign=middle;resizable=0;points=[];autosize=1;strokeColor=none;fillColor=none;" vertex="1" parent="1">
          <mxGeometry x="1370" y="1280" width="40" height="30" as="geometry" />
        </mxCell>
        <mxCell id="5cQ5xoeOof3CIsawwjt8-141" value="" style="edgeStyle=orthogonalEdgeStyle;rounded=0;orthogonalLoop=1;jettySize=auto;html=1;entryX=0.5;entryY=0;entryDx=0;entryDy=0;" edge="1" parent="1" target="5cQ5xoeOof3CIsawwjt8-143">
          <mxGeometry relative="1" as="geometry">
            <mxPoint x="1510" y="1375" as="sourcePoint" />
          </mxGeometry>
        </mxCell>
        <mxCell id="5cQ5xoeOof3CIsawwjt8-142" value="" style="edgeStyle=orthogonalEdgeStyle;rounded=0;orthogonalLoop=1;jettySize=auto;html=1;" edge="1" parent="1" source="5cQ5xoeOof3CIsawwjt8-143" target="5cQ5xoeOof3CIsawwjt8-145">
          <mxGeometry relative="1" as="geometry" />
        </mxCell>
        <mxCell id="5cQ5xoeOof3CIsawwjt8-155" value="" style="edgeStyle=orthogonalEdgeStyle;rounded=0;orthogonalLoop=1;jettySize=auto;html=1;entryX=0.5;entryY=0;entryDx=0;entryDy=0;" edge="1" parent="1" source="5cQ5xoeOof3CIsawwjt8-143" target="5cQ5xoeOof3CIsawwjt8-154">
          <mxGeometry relative="1" as="geometry" />
        </mxCell>
        <mxCell id="5cQ5xoeOof3CIsawwjt8-143" value="&lt;span style=&quot;text-align: left;&quot;&gt;&lt;font style=&quot;&quot;&gt;&lt;font face=&quot;Sarabun&quot;&gt;&lt;span style=&quot;text-wrap-mode: nowrap;&quot;&gt;จิ้นส้มหมก&amp;nbsp;ใช้หรือไม่&lt;/span&gt;&lt;/font&gt;&lt;/font&gt;&lt;/span&gt;" style="rhombus;whiteSpace=wrap;html=1;" vertex="1" parent="1">
          <mxGeometry x="1530" y="1400" width="140" height="70" as="geometry" />
        </mxCell>
        <mxCell id="5cQ5xoeOof3CIsawwjt8-144" value="ใช้" style="text;html=1;align=center;verticalAlign=middle;resizable=0;points=[];autosize=1;strokeColor=none;fillColor=none;" vertex="1" parent="1">
          <mxGeometry x="1560" y="1465" width="40" height="30" as="geometry" />
        </mxCell>
        <mxCell id="5cQ5xoeOof3CIsawwjt8-163" style="edgeStyle=orthogonalEdgeStyle;rounded=0;orthogonalLoop=1;jettySize=auto;html=1;entryX=1;entryY=0.5;entryDx=0;entryDy=0;" edge="1" parent="1" source="5cQ5xoeOof3CIsawwjt8-145" target="5cQ5xoeOof3CIsawwjt8-94">
          <mxGeometry relative="1" as="geometry">
            <Array as="points">
              <mxPoint x="560" y="1530" />
              <mxPoint x="560" y="1135" />
            </Array>
          </mxGeometry>
        </mxCell>
        <mxCell id="5cQ5xoeOof3CIsawwjt8-145" value="&lt;div style=&quot;text-align: left;&quot;&gt;&lt;span style=&quot;background-color: transparent; text-wrap-mode: nowrap;&quot;&gt;&lt;font face=&quot;Sarabun&quot;&gt;จิ้นส้มหมก&lt;/font&gt;&lt;/span&gt;&lt;span style=&quot;background-color: transparent; color: light-dark(rgb(0, 0, 0), rgb(255, 255, 255));&quot;&gt;&amp;nbsp;+ 1&lt;/span&gt;&lt;/div&gt;&lt;div&gt;ยอดรวม + 15&lt;/div&gt;" style="whiteSpace=wrap;html=1;" vertex="1" parent="1">
          <mxGeometry x="1540" y="1500" width="120" height="60" as="geometry" />
        </mxCell>
        <mxCell id="5cQ5xoeOof3CIsawwjt8-146" value="ไม่" style="text;html=1;align=center;verticalAlign=middle;resizable=0;points=[];autosize=1;strokeColor=none;fillColor=none;" vertex="1" parent="1">
          <mxGeometry x="1530" y="1340" width="40" height="30" as="geometry" />
        </mxCell>
        <mxCell id="5cQ5xoeOof3CIsawwjt8-152" value="ไม่" style="text;html=1;align=center;verticalAlign=middle;resizable=0;points=[];autosize=1;strokeColor=none;fillColor=none;" vertex="1" parent="1">
          <mxGeometry x="1690" y="1400" width="40" height="30" as="geometry" />
        </mxCell>
        <mxCell id="5cQ5xoeOof3CIsawwjt8-164" style="edgeStyle=orthogonalEdgeStyle;rounded=0;orthogonalLoop=1;jettySize=auto;html=1;entryX=1;entryY=0.5;entryDx=0;entryDy=0;" edge="1" parent="1" source="5cQ5xoeOof3CIsawwjt8-154" target="5cQ5xoeOof3CIsawwjt8-94">
          <mxGeometry relative="1" as="geometry">
            <Array as="points">
              <mxPoint x="1780" y="1590" />
              <mxPoint x="560" y="1590" />
              <mxPoint x="560" y="1135" />
            </Array>
          </mxGeometry>
        </mxCell>
        <mxCell id="5cQ5xoeOof3CIsawwjt8-154" value="scanf ไม่มีรายการที่เลือก" style="shape=parallelogram;perimeter=parallelogramPerimeter;whiteSpace=wrap;html=1;fixedSize=1;" vertex="1" parent="1">
          <mxGeometry x="1700" y="1487.5" width="160" height="60" as="geometry" />
        </mxCell>
        <mxCell id="5cQ5xoeOof3CIsawwjt8-167" value="ไม่" style="text;html=1;align=center;verticalAlign=middle;resizable=0;points=[];autosize=1;strokeColor=none;fillColor=none;" vertex="1" parent="1">
          <mxGeometry x="445.64" y="1395" width="40" height="30" as="geometry" />
        </mxCell>
        <mxCell id="5cQ5xoeOof3CIsawwjt8-168" value="ใช้" style="text;html=1;align=center;verticalAlign=middle;resizable=0;points=[];autosize=1;strokeColor=none;fillColor=none;" vertex="1" parent="1">
          <mxGeometry x="285.16" y="1290" width="40" height="30" as="geometry" />
        </mxCell>
        <mxCell id="5cQ5xoeOof3CIsawwjt8-222" value="" style="edgeStyle=orthogonalEdgeStyle;rounded=0;orthogonalLoop=1;jettySize=auto;html=1;" edge="1" parent="1" source="5cQ5xoeOof3CIsawwjt8-172" target="5cQ5xoeOof3CIsawwjt8-210">
          <mxGeometry relative="1" as="geometry" />
        </mxCell>
        <mxCell id="5cQ5xoeOof3CIsawwjt8-172" value="&lt;font style=&quot;font-size: 14px;&quot;&gt;scanf รับเงินจากลูกค้า&lt;/font&gt;" style="shape=parallelogram;perimeter=parallelogramPerimeter;whiteSpace=wrap;html=1;fixedSize=1;" vertex="1" parent="1">
          <mxGeometry x="344.29" y="1660" width="171.43" height="50" as="geometry" />
        </mxCell>
        <mxCell id="5cQ5xoeOof3CIsawwjt8-228" value="" style="edgeStyle=orthogonalEdgeStyle;rounded=0;orthogonalLoop=1;jettySize=auto;html=1;" edge="1" parent="1" source="5cQ5xoeOof3CIsawwjt8-175" target="5cQ5xoeOof3CIsawwjt8-185">
          <mxGeometry relative="1" as="geometry" />
        </mxCell>
        <mxCell id="5cQ5xoeOof3CIsawwjt8-307" style="edgeStyle=orthogonalEdgeStyle;rounded=0;orthogonalLoop=1;jettySize=auto;html=1;entryX=0;entryY=0.5;entryDx=0;entryDy=0;exitX=0;exitY=0.5;exitDx=0;exitDy=0;" edge="1" parent="1" source="5cQ5xoeOof3CIsawwjt8-175">
          <mxGeometry relative="1" as="geometry">
            <mxPoint x="297" y="2412.756999085087" as="sourcePoint" />
            <mxPoint x="392.32000000000016" y="1575" as="targetPoint" />
            <Array as="points">
              <mxPoint x="297" y="1575" />
            </Array>
          </mxGeometry>
        </mxCell>
        <mxCell id="5cQ5xoeOof3CIsawwjt8-175" value="&lt;font style=&quot;font-size: 14px;&quot;&gt;เงินที่รับมามากกว่า&amp;nbsp;&lt;/font&gt;&lt;div&gt;&lt;font style=&quot;font-size: 14px;&quot;&gt;หรือ เท่ากับยอดรวมหรือไม่&lt;/font&gt;&lt;/div&gt;" style="rhombus;whiteSpace=wrap;html=1;" vertex="1" parent="1">
          <mxGeometry x="297.1" y="2360" width="266.44" height="110" as="geometry" />
        </mxCell>
        <mxCell id="5cQ5xoeOof3CIsawwjt8-180" value="&lt;font style=&quot;font-size: 14px;&quot;&gt;ทอนเงิน&lt;/font&gt;" style="rounded=0;whiteSpace=wrap;html=1;" vertex="1" parent="1">
          <mxGeometry x="369.3099999999998" y="2630" width="120" height="40" as="geometry" />
        </mxCell>
        <mxCell id="5cQ5xoeOof3CIsawwjt8-208" value="" style="edgeStyle=orthogonalEdgeStyle;rounded=0;orthogonalLoop=1;jettySize=auto;html=1;" edge="1" parent="1" source="5cQ5xoeOof3CIsawwjt8-185" target="5cQ5xoeOof3CIsawwjt8-180">
          <mxGeometry relative="1" as="geometry" />
        </mxCell>
        <mxCell id="5cQ5xoeOof3CIsawwjt8-185" value="&lt;font style=&quot;font-size: 14px;&quot;&gt;คิดคำนวนหา เงินทอน&lt;/font&gt;&lt;div&gt;&lt;span style=&quot;font-size: 14px;&quot;&gt;ยอดรวม - เงินจ่าย&lt;/span&gt;&lt;/div&gt;" style="rounded=0;whiteSpace=wrap;html=1;" vertex="1" parent="1">
          <mxGeometry x="363.33999999999986" y="2530" width="131.95" height="70" as="geometry" />
        </mxCell>
        <mxCell id="5cQ5xoeOof3CIsawwjt8-308" value="" style="edgeStyle=orthogonalEdgeStyle;rounded=0;orthogonalLoop=1;jettySize=auto;html=1;" edge="1" parent="1" source="5cQ5xoeOof3CIsawwjt8-187" target="5cQ5xoeOof3CIsawwjt8-196">
          <mxGeometry relative="1" as="geometry" />
        </mxCell>
        <mxCell id="5cQ5xoeOof3CIsawwjt8-187" value="&lt;span style=&quot;font-size: 14px;&quot;&gt;คำนวณว่าเหลือเหรียญอย่างละเท่าไหร่&lt;/span&gt;" style="rounded=0;whiteSpace=wrap;html=1;" vertex="1" parent="1">
          <mxGeometry x="305.06" y="2800" width="250.52" height="40" as="geometry" />
        </mxCell>
        <mxCell id="5cQ5xoeOof3CIsawwjt8-192" value="" style="edgeStyle=orthogonalEdgeStyle;rounded=0;orthogonalLoop=1;jettySize=auto;html=1;" edge="1" parent="1" target="5cQ5xoeOof3CIsawwjt8-195">
          <mxGeometry relative="1" as="geometry">
            <mxPoint x="429.8199999999997" y="2670" as="sourcePoint" />
          </mxGeometry>
        </mxCell>
        <mxCell id="5cQ5xoeOof3CIsawwjt8-194" value="" style="edgeStyle=orthogonalEdgeStyle;rounded=0;orthogonalLoop=1;jettySize=auto;html=1;" edge="1" parent="1" source="5cQ5xoeOof3CIsawwjt8-195" target="5cQ5xoeOof3CIsawwjt8-187">
          <mxGeometry relative="1" as="geometry" />
        </mxCell>
        <mxCell id="5cQ5xoeOof3CIsawwjt8-195" value="&lt;font style=&quot;font-size: 14px;&quot;&gt;คำนวณว่าเหลือธนบัตรอย่างละเท่าไหร่&lt;/font&gt;" style="whiteSpace=wrap;html=1;rounded=0;" vertex="1" parent="1">
          <mxGeometry x="299.64" y="2710" width="260.36" height="40" as="geometry" />
        </mxCell>
        <mxCell id="5cQ5xoeOof3CIsawwjt8-196" value="&lt;font style=&quot;font-size: 14px;&quot; data-font-src=&quot;https://fonts.googleapis.com/css?family=Sarabun&quot; face=&quot;Sarabun&quot;&gt;สิ้นสุด&lt;/font&gt;" style="ellipse;whiteSpace=wrap;html=1;" vertex="1" parent="1">
          <mxGeometry x="363.34000000000003" y="2900" width="135.17" height="50" as="geometry" />
        </mxCell>
        <mxCell id="5cQ5xoeOof3CIsawwjt8-209" value="" style="edgeStyle=orthogonalEdgeStyle;rounded=0;orthogonalLoop=1;jettySize=auto;html=1;" edge="1" parent="1" source="5cQ5xoeOof3CIsawwjt8-197" target="5cQ5xoeOof3CIsawwjt8-172">
          <mxGeometry relative="1" as="geometry" />
        </mxCell>
        <mxCell id="5cQ5xoeOof3CIsawwjt8-197" value="" style="ellipse;whiteSpace=wrap;html=1;aspect=fixed;" vertex="1" parent="1">
          <mxGeometry x="395.32000000000005" y="1540" width="70" height="70" as="geometry" />
        </mxCell>
        <mxCell id="5cQ5xoeOof3CIsawwjt8-213" value="" style="edgeStyle=orthogonalEdgeStyle;rounded=0;orthogonalLoop=1;jettySize=auto;html=1;" edge="1" parent="1" source="5cQ5xoeOof3CIsawwjt8-210" target="5cQ5xoeOof3CIsawwjt8-212">
          <mxGeometry relative="1" as="geometry" />
        </mxCell>
        <mxCell id="5cQ5xoeOof3CIsawwjt8-240" style="edgeStyle=orthogonalEdgeStyle;rounded=0;orthogonalLoop=1;jettySize=auto;html=1;entryX=0.5;entryY=0;entryDx=0;entryDy=0;" edge="1" parent="1" source="5cQ5xoeOof3CIsawwjt8-210" target="5cQ5xoeOof3CIsawwjt8-237">
          <mxGeometry relative="1" as="geometry" />
        </mxCell>
        <mxCell id="5cQ5xoeOof3CIsawwjt8-210" value="เงินที่รับมาเป็น ธนบัตรใช้หรือไม่" style="rhombus;whiteSpace=wrap;html=1;" vertex="1" parent="1">
          <mxGeometry x="330.18" y="1760" width="199.65" height="100" as="geometry" />
        </mxCell>
        <mxCell id="5cQ5xoeOof3CIsawwjt8-223" value="" style="edgeStyle=orthogonalEdgeStyle;rounded=0;orthogonalLoop=1;jettySize=auto;html=1;" edge="1" parent="1" source="5cQ5xoeOof3CIsawwjt8-212" target="5cQ5xoeOof3CIsawwjt8-221">
          <mxGeometry relative="1" as="geometry" />
        </mxCell>
        <mxCell id="5cQ5xoeOof3CIsawwjt8-277" style="edgeStyle=orthogonalEdgeStyle;rounded=0;orthogonalLoop=1;jettySize=auto;html=1;entryX=0.5;entryY=0;entryDx=0;entryDy=0;" edge="1" parent="1" source="5cQ5xoeOof3CIsawwjt8-212" target="5cQ5xoeOof3CIsawwjt8-273">
          <mxGeometry relative="1" as="geometry" />
        </mxCell>
        <mxCell id="5cQ5xoeOof3CIsawwjt8-212" value="เงินที่รับมาเป็น เหรียญใช้หรือไม่" style="rhombus;whiteSpace=wrap;html=1;" vertex="1" parent="1">
          <mxGeometry x="329.81" y="1910" width="200.02" height="100" as="geometry" />
        </mxCell>
        <mxCell id="5cQ5xoeOof3CIsawwjt8-303" style="edgeStyle=orthogonalEdgeStyle;rounded=0;orthogonalLoop=1;jettySize=auto;html=1;entryX=0;entryY=0.5;entryDx=0;entryDy=0;" edge="1" parent="1" source="5cQ5xoeOof3CIsawwjt8-221" target="5cQ5xoeOof3CIsawwjt8-197">
          <mxGeometry relative="1" as="geometry">
            <Array as="points">
              <mxPoint x="310" y="2100" />
              <mxPoint x="310" y="1575" />
            </Array>
          </mxGeometry>
        </mxCell>
        <mxCell id="5cQ5xoeOof3CIsawwjt8-221" value="&lt;font style=&quot;font-size: 14px;&quot;&gt;scanf รูปแบบเงินไม่ถูกต้อง&lt;/font&gt;" style="shape=parallelogram;perimeter=parallelogramPerimeter;whiteSpace=wrap;html=1;fixedSize=1;" vertex="1" parent="1">
          <mxGeometry x="326.40000000000003" y="2070" width="206.84" height="60" as="geometry" />
        </mxCell>
        <mxCell id="5cQ5xoeOof3CIsawwjt8-227" value="" style="edgeStyle=orthogonalEdgeStyle;rounded=0;orthogonalLoop=1;jettySize=auto;html=1;" edge="1" parent="1" source="5cQ5xoeOof3CIsawwjt8-226" target="5cQ5xoeOof3CIsawwjt8-175">
          <mxGeometry relative="1" as="geometry" />
        </mxCell>
        <mxCell id="5cQ5xoeOof3CIsawwjt8-226" value="" style="ellipse;whiteSpace=wrap;html=1;aspect=fixed;" vertex="1" parent="1">
          <mxGeometry x="394.82" y="2200" width="70" height="70" as="geometry" />
        </mxCell>
        <mxCell id="5cQ5xoeOof3CIsawwjt8-229" value="ไม่" style="text;html=1;align=center;verticalAlign=middle;resizable=0;points=[];autosize=1;strokeColor=none;fillColor=none;" vertex="1" parent="1">
          <mxGeometry x="449.82" y="1870" width="40" height="30" as="geometry" />
        </mxCell>
        <mxCell id="5cQ5xoeOof3CIsawwjt8-230" value="ไม่" style="text;html=1;align=center;verticalAlign=middle;resizable=0;points=[];autosize=1;strokeColor=none;fillColor=none;" vertex="1" parent="1">
          <mxGeometry x="445.64" y="2020" width="40" height="30" as="geometry" />
        </mxCell>
        <mxCell id="5cQ5xoeOof3CIsawwjt8-231" value="ใช้" style="text;html=1;align=center;verticalAlign=middle;resizable=0;points=[];autosize=1;strokeColor=none;fillColor=none;" vertex="1" parent="1">
          <mxGeometry x="553.76" y="1760" width="40" height="30" as="geometry" />
        </mxCell>
        <mxCell id="5cQ5xoeOof3CIsawwjt8-232" value="ใช้" style="text;html=1;align=center;verticalAlign=middle;resizable=0;points=[];autosize=1;strokeColor=none;fillColor=none;" vertex="1" parent="1">
          <mxGeometry x="253.7" y="1920" width="40" height="30" as="geometry" />
        </mxCell>
        <mxCell id="5cQ5xoeOof3CIsawwjt8-236" value="" style="edgeStyle=orthogonalEdgeStyle;rounded=0;orthogonalLoop=1;jettySize=auto;html=1;" edge="1" parent="1" source="5cQ5xoeOof3CIsawwjt8-237" target="5cQ5xoeOof3CIsawwjt8-239">
          <mxGeometry relative="1" as="geometry" />
        </mxCell>
        <mxCell id="5cQ5xoeOof3CIsawwjt8-247" value="" style="edgeStyle=orthogonalEdgeStyle;rounded=0;orthogonalLoop=1;jettySize=auto;html=1;entryX=0.5;entryY=0;entryDx=0;entryDy=0;" edge="1" parent="1" source="5cQ5xoeOof3CIsawwjt8-237" target="5cQ5xoeOof3CIsawwjt8-244">
          <mxGeometry relative="1" as="geometry" />
        </mxCell>
        <mxCell id="5cQ5xoeOof3CIsawwjt8-237" value="&lt;span style=&quot;font-family: Sarabun; text-align: left; text-wrap-mode: nowrap;&quot;&gt;&lt;font style=&quot;font-size: 12px;&quot;&gt;แบงค์ 1000 ใช้หรือไม่&lt;/font&gt;&lt;/span&gt;" style="rhombus;whiteSpace=wrap;html=1;" vertex="1" parent="1">
          <mxGeometry x="590" y="1830" width="140" height="70" as="geometry" />
        </mxCell>
        <mxCell id="5cQ5xoeOof3CIsawwjt8-238" value="ใช้" style="text;html=1;align=center;verticalAlign=middle;resizable=0;points=[];autosize=1;strokeColor=none;fillColor=none;" vertex="1" parent="1">
          <mxGeometry x="610" y="1900" width="40" height="30" as="geometry" />
        </mxCell>
        <mxCell id="5cQ5xoeOof3CIsawwjt8-241" style="edgeStyle=orthogonalEdgeStyle;rounded=0;orthogonalLoop=1;jettySize=auto;html=1;entryX=1;entryY=0.5;entryDx=0;entryDy=0;" edge="1" parent="1" source="5cQ5xoeOof3CIsawwjt8-239" target="5cQ5xoeOof3CIsawwjt8-226">
          <mxGeometry relative="1" as="geometry">
            <Array as="points">
              <mxPoint x="660" y="2235" />
            </Array>
          </mxGeometry>
        </mxCell>
        <mxCell id="5cQ5xoeOof3CIsawwjt8-239" value="แบงค์ 1000 + 1" style="whiteSpace=wrap;html=1;" vertex="1" parent="1">
          <mxGeometry x="600" y="1940" width="120" height="60" as="geometry" />
        </mxCell>
        <mxCell id="5cQ5xoeOof3CIsawwjt8-242" value="ไม่" style="text;html=1;align=center;verticalAlign=middle;resizable=0;points=[];autosize=1;strokeColor=none;fillColor=none;" vertex="1" parent="1">
          <mxGeometry x="760" y="1830" width="40" height="30" as="geometry" />
        </mxCell>
        <mxCell id="5cQ5xoeOof3CIsawwjt8-243" value="" style="edgeStyle=orthogonalEdgeStyle;rounded=0;orthogonalLoop=1;jettySize=auto;html=1;" edge="1" parent="1" source="5cQ5xoeOof3CIsawwjt8-244" target="5cQ5xoeOof3CIsawwjt8-246">
          <mxGeometry relative="1" as="geometry" />
        </mxCell>
        <mxCell id="5cQ5xoeOof3CIsawwjt8-244" value="&lt;span style=&quot;font-family: Sarabun; text-align: left; text-wrap-mode: nowrap;&quot;&gt;&lt;font style=&quot;font-size: 12px;&quot;&gt;แบงค์ 500 ใช้หรือไม่&lt;/font&gt;&lt;/span&gt;" style="rhombus;whiteSpace=wrap;html=1;" vertex="1" parent="1">
          <mxGeometry x="750" y="1890" width="140" height="70" as="geometry" />
        </mxCell>
        <mxCell id="5cQ5xoeOof3CIsawwjt8-245" value="ใช้" style="text;html=1;align=center;verticalAlign=middle;resizable=0;points=[];autosize=1;strokeColor=none;fillColor=none;" vertex="1" parent="1">
          <mxGeometry x="770" y="1960" width="40" height="30" as="geometry" />
        </mxCell>
        <mxCell id="5cQ5xoeOof3CIsawwjt8-248" style="edgeStyle=orthogonalEdgeStyle;rounded=0;orthogonalLoop=1;jettySize=auto;html=1;entryX=1;entryY=0.5;entryDx=0;entryDy=0;" edge="1" parent="1" source="5cQ5xoeOof3CIsawwjt8-246" target="5cQ5xoeOof3CIsawwjt8-226">
          <mxGeometry relative="1" as="geometry">
            <Array as="points">
              <mxPoint x="820" y="2235" />
            </Array>
          </mxGeometry>
        </mxCell>
        <mxCell id="5cQ5xoeOof3CIsawwjt8-246" value="แบงค์ 500 + 1" style="whiteSpace=wrap;html=1;" vertex="1" parent="1">
          <mxGeometry x="760" y="2000" width="120" height="60" as="geometry" />
        </mxCell>
        <mxCell id="5cQ5xoeOof3CIsawwjt8-249" value="" style="edgeStyle=orthogonalEdgeStyle;rounded=0;orthogonalLoop=1;jettySize=auto;html=1;entryX=0.5;entryY=0;entryDx=0;entryDy=0;" edge="1" parent="1" target="5cQ5xoeOof3CIsawwjt8-252">
          <mxGeometry relative="1" as="geometry">
            <mxPoint x="890" y="1925" as="sourcePoint" />
          </mxGeometry>
        </mxCell>
        <mxCell id="5cQ5xoeOof3CIsawwjt8-250" value="ไม่" style="text;html=1;align=center;verticalAlign=middle;resizable=0;points=[];autosize=1;strokeColor=none;fillColor=none;" vertex="1" parent="1">
          <mxGeometry x="920" y="1890" width="40" height="30" as="geometry" />
        </mxCell>
        <mxCell id="5cQ5xoeOof3CIsawwjt8-251" value="" style="edgeStyle=orthogonalEdgeStyle;rounded=0;orthogonalLoop=1;jettySize=auto;html=1;" edge="1" parent="1" source="5cQ5xoeOof3CIsawwjt8-252" target="5cQ5xoeOof3CIsawwjt8-254">
          <mxGeometry relative="1" as="geometry" />
        </mxCell>
        <mxCell id="5cQ5xoeOof3CIsawwjt8-252" value="&lt;span style=&quot;font-family: Sarabun; text-align: left; text-wrap-mode: nowrap;&quot;&gt;&lt;font style=&quot;font-size: 12px;&quot;&gt;แบงค์ 100 ใช้หรือไม่&lt;/font&gt;&lt;/span&gt;" style="rhombus;whiteSpace=wrap;html=1;" vertex="1" parent="1">
          <mxGeometry x="910" y="1950" width="140" height="70" as="geometry" />
        </mxCell>
        <mxCell id="5cQ5xoeOof3CIsawwjt8-253" value="ใช้" style="text;html=1;align=center;verticalAlign=middle;resizable=0;points=[];autosize=1;strokeColor=none;fillColor=none;" vertex="1" parent="1">
          <mxGeometry x="930" y="2020" width="40" height="30" as="geometry" />
        </mxCell>
        <mxCell id="5cQ5xoeOof3CIsawwjt8-267" style="edgeStyle=orthogonalEdgeStyle;rounded=0;orthogonalLoop=1;jettySize=auto;html=1;entryX=1;entryY=0.5;entryDx=0;entryDy=0;" edge="1" parent="1" source="5cQ5xoeOof3CIsawwjt8-254" target="5cQ5xoeOof3CIsawwjt8-226">
          <mxGeometry relative="1" as="geometry">
            <Array as="points">
              <mxPoint x="980" y="2235" />
            </Array>
          </mxGeometry>
        </mxCell>
        <mxCell id="5cQ5xoeOof3CIsawwjt8-254" value="แบงค์ 100 + 1" style="whiteSpace=wrap;html=1;" vertex="1" parent="1">
          <mxGeometry x="920" y="2060" width="120" height="60" as="geometry" />
        </mxCell>
        <mxCell id="5cQ5xoeOof3CIsawwjt8-255" value="" style="edgeStyle=orthogonalEdgeStyle;rounded=0;orthogonalLoop=1;jettySize=auto;html=1;entryX=0.5;entryY=0;entryDx=0;entryDy=0;" edge="1" parent="1" target="5cQ5xoeOof3CIsawwjt8-258">
          <mxGeometry relative="1" as="geometry">
            <mxPoint x="1050" y="1985" as="sourcePoint" />
          </mxGeometry>
        </mxCell>
        <mxCell id="5cQ5xoeOof3CIsawwjt8-256" value="ไม่" style="text;html=1;align=center;verticalAlign=middle;resizable=0;points=[];autosize=1;strokeColor=none;fillColor=none;" vertex="1" parent="1">
          <mxGeometry x="1080" y="1950" width="40" height="30" as="geometry" />
        </mxCell>
        <mxCell id="5cQ5xoeOof3CIsawwjt8-257" value="" style="edgeStyle=orthogonalEdgeStyle;rounded=0;orthogonalLoop=1;jettySize=auto;html=1;" edge="1" parent="1" source="5cQ5xoeOof3CIsawwjt8-258" target="5cQ5xoeOof3CIsawwjt8-260">
          <mxGeometry relative="1" as="geometry" />
        </mxCell>
        <mxCell id="5cQ5xoeOof3CIsawwjt8-258" value="&lt;span style=&quot;font-family: Sarabun; text-align: left; text-wrap-mode: nowrap;&quot;&gt;&lt;font style=&quot;font-size: 12px;&quot;&gt;แบงค์ 50 ใช้หรือไม่&lt;/font&gt;&lt;/span&gt;" style="rhombus;whiteSpace=wrap;html=1;" vertex="1" parent="1">
          <mxGeometry x="1070" y="2010" width="140" height="70" as="geometry" />
        </mxCell>
        <mxCell id="5cQ5xoeOof3CIsawwjt8-259" value="ใช้" style="text;html=1;align=center;verticalAlign=middle;resizable=0;points=[];autosize=1;strokeColor=none;fillColor=none;" vertex="1" parent="1">
          <mxGeometry x="1090" y="2080" width="40" height="30" as="geometry" />
        </mxCell>
        <mxCell id="5cQ5xoeOof3CIsawwjt8-268" style="edgeStyle=orthogonalEdgeStyle;rounded=0;orthogonalLoop=1;jettySize=auto;html=1;entryX=1;entryY=0.5;entryDx=0;entryDy=0;" edge="1" parent="1" source="5cQ5xoeOof3CIsawwjt8-260" target="5cQ5xoeOof3CIsawwjt8-226">
          <mxGeometry relative="1" as="geometry">
            <Array as="points">
              <mxPoint x="1140" y="2235" />
            </Array>
          </mxGeometry>
        </mxCell>
        <mxCell id="5cQ5xoeOof3CIsawwjt8-260" value="แบงค์ 50 + 1" style="whiteSpace=wrap;html=1;" vertex="1" parent="1">
          <mxGeometry x="1080" y="2120" width="120" height="60" as="geometry" />
        </mxCell>
        <mxCell id="5cQ5xoeOof3CIsawwjt8-261" value="" style="edgeStyle=orthogonalEdgeStyle;rounded=0;orthogonalLoop=1;jettySize=auto;html=1;entryX=0.5;entryY=0;entryDx=0;entryDy=0;" edge="1" parent="1" target="5cQ5xoeOof3CIsawwjt8-266">
          <mxGeometry relative="1" as="geometry">
            <mxPoint x="1210" y="2045" as="sourcePoint" />
            <mxPoint x="1300" y="2070" as="targetPoint" />
          </mxGeometry>
        </mxCell>
        <mxCell id="5cQ5xoeOof3CIsawwjt8-262" value="ไม่" style="text;html=1;align=center;verticalAlign=middle;resizable=0;points=[];autosize=1;strokeColor=none;fillColor=none;" vertex="1" parent="1">
          <mxGeometry x="1240" y="2010" width="40" height="30" as="geometry" />
        </mxCell>
        <mxCell id="5cQ5xoeOof3CIsawwjt8-297" style="edgeStyle=orthogonalEdgeStyle;rounded=0;orthogonalLoop=1;jettySize=auto;html=1;entryX=1;entryY=0.5;entryDx=0;entryDy=0;" edge="1" parent="1" source="5cQ5xoeOof3CIsawwjt8-266" target="5cQ5xoeOof3CIsawwjt8-226">
          <mxGeometry relative="1" as="geometry">
            <Array as="points">
              <mxPoint x="1300" y="2235" />
            </Array>
          </mxGeometry>
        </mxCell>
        <mxCell id="5cQ5xoeOof3CIsawwjt8-266" value="แบงค์ 20 + 1" style="whiteSpace=wrap;html=1;" vertex="1" parent="1">
          <mxGeometry x="1240" y="2105" width="120" height="60" as="geometry" />
        </mxCell>
        <mxCell id="5cQ5xoeOof3CIsawwjt8-271" value="" style="edgeStyle=orthogonalEdgeStyle;rounded=0;orthogonalLoop=1;jettySize=auto;html=1;" edge="1" parent="1" source="5cQ5xoeOof3CIsawwjt8-273" target="5cQ5xoeOof3CIsawwjt8-276">
          <mxGeometry relative="1" as="geometry" />
        </mxCell>
        <mxCell id="5cQ5xoeOof3CIsawwjt8-273" value="&lt;span style=&quot;font-family: Sarabun; text-align: left; text-wrap-mode: nowrap;&quot;&gt;&lt;font style=&quot;font-size: 12px;&quot;&gt;เหรียญ 10 ใช้หรือไม่&lt;/font&gt;&lt;/span&gt;" style="rhombus;whiteSpace=wrap;html=1;" vertex="1" parent="1">
          <mxGeometry x="145.16" y="1980" width="140" height="70" as="geometry" />
        </mxCell>
        <mxCell id="5cQ5xoeOof3CIsawwjt8-274" value="ใช้" style="text;html=1;align=center;verticalAlign=middle;resizable=0;points=[];autosize=1;strokeColor=none;fillColor=none;" vertex="1" parent="1">
          <mxGeometry x="165.16" y="2050" width="40" height="30" as="geometry" />
        </mxCell>
        <mxCell id="5cQ5xoeOof3CIsawwjt8-298" style="edgeStyle=orthogonalEdgeStyle;rounded=0;orthogonalLoop=1;jettySize=auto;html=1;entryX=0;entryY=0.5;entryDx=0;entryDy=0;" edge="1" parent="1" source="5cQ5xoeOof3CIsawwjt8-276" target="5cQ5xoeOof3CIsawwjt8-226">
          <mxGeometry relative="1" as="geometry">
            <Array as="points">
              <mxPoint x="215" y="2235" />
            </Array>
          </mxGeometry>
        </mxCell>
        <mxCell id="5cQ5xoeOof3CIsawwjt8-276" value="&lt;span style=&quot;font-family: Sarabun; text-align: left; text-wrap-mode: nowrap;&quot;&gt;เหรียญ 10&amp;nbsp;&lt;/span&gt;+ 1" style="whiteSpace=wrap;html=1;" vertex="1" parent="1">
          <mxGeometry x="155.16" y="2090" width="120" height="60" as="geometry" />
        </mxCell>
        <mxCell id="5cQ5xoeOof3CIsawwjt8-278" value="ไม่" style="text;html=1;align=center;verticalAlign=middle;resizable=0;points=[];autosize=1;strokeColor=none;fillColor=none;" vertex="1" parent="1">
          <mxGeometry x="90" y="1980" width="40" height="30" as="geometry" />
        </mxCell>
        <mxCell id="5cQ5xoeOof3CIsawwjt8-279" style="edgeStyle=orthogonalEdgeStyle;rounded=0;orthogonalLoop=1;jettySize=auto;html=1;entryX=0.5;entryY=0;entryDx=0;entryDy=0;" edge="1" parent="1" target="5cQ5xoeOof3CIsawwjt8-281">
          <mxGeometry relative="1" as="geometry">
            <mxPoint x="145.16" y="2015" as="sourcePoint" />
          </mxGeometry>
        </mxCell>
        <mxCell id="5cQ5xoeOof3CIsawwjt8-280" value="" style="edgeStyle=orthogonalEdgeStyle;rounded=0;orthogonalLoop=1;jettySize=auto;html=1;" edge="1" parent="1" source="5cQ5xoeOof3CIsawwjt8-281" target="5cQ5xoeOof3CIsawwjt8-283">
          <mxGeometry relative="1" as="geometry" />
        </mxCell>
        <mxCell id="5cQ5xoeOof3CIsawwjt8-281" value="&lt;span style=&quot;font-family: Sarabun; text-align: left; text-wrap-mode: nowrap;&quot;&gt;&lt;font style=&quot;font-size: 12px;&quot;&gt;เหรียญ 5 ใช้หรือไม่&lt;/font&gt;&lt;/span&gt;" style="rhombus;whiteSpace=wrap;html=1;" vertex="1" parent="1">
          <mxGeometry x="-39.68000000000001" y="2035" width="140" height="70" as="geometry" />
        </mxCell>
        <mxCell id="5cQ5xoeOof3CIsawwjt8-282" value="ใช้" style="text;html=1;align=center;verticalAlign=middle;resizable=0;points=[];autosize=1;strokeColor=none;fillColor=none;" vertex="1" parent="1">
          <mxGeometry x="-19.680000000000007" y="2105" width="40" height="30" as="geometry" />
        </mxCell>
        <mxCell id="5cQ5xoeOof3CIsawwjt8-299" style="edgeStyle=orthogonalEdgeStyle;rounded=0;orthogonalLoop=1;jettySize=auto;html=1;entryX=0;entryY=0.5;entryDx=0;entryDy=0;" edge="1" parent="1" source="5cQ5xoeOof3CIsawwjt8-283" target="5cQ5xoeOof3CIsawwjt8-226">
          <mxGeometry relative="1" as="geometry">
            <Array as="points">
              <mxPoint x="30" y="2235" />
            </Array>
          </mxGeometry>
        </mxCell>
        <mxCell id="5cQ5xoeOof3CIsawwjt8-283" value="&lt;span style=&quot;font-family: Sarabun; text-align: left; text-wrap-mode: nowrap;&quot;&gt;เหรียญ 5&amp;nbsp;&lt;/span&gt;+ 1" style="whiteSpace=wrap;html=1;" vertex="1" parent="1">
          <mxGeometry x="-29.680000000000007" y="2145" width="120" height="60" as="geometry" />
        </mxCell>
        <mxCell id="5cQ5xoeOof3CIsawwjt8-284" value="ไม่" style="text;html=1;align=center;verticalAlign=middle;resizable=0;points=[];autosize=1;strokeColor=none;fillColor=none;" vertex="1" parent="1">
          <mxGeometry x="-94.84" y="2035" width="40" height="30" as="geometry" />
        </mxCell>
        <mxCell id="5cQ5xoeOof3CIsawwjt8-285" style="edgeStyle=orthogonalEdgeStyle;rounded=0;orthogonalLoop=1;jettySize=auto;html=1;entryX=0.5;entryY=0;entryDx=0;entryDy=0;" edge="1" parent="1" target="5cQ5xoeOof3CIsawwjt8-287">
          <mxGeometry relative="1" as="geometry">
            <mxPoint x="-39.68000000000001" y="2070" as="sourcePoint" />
          </mxGeometry>
        </mxCell>
        <mxCell id="5cQ5xoeOof3CIsawwjt8-286" value="" style="edgeStyle=orthogonalEdgeStyle;rounded=0;orthogonalLoop=1;jettySize=auto;html=1;" edge="1" parent="1" source="5cQ5xoeOof3CIsawwjt8-287" target="5cQ5xoeOof3CIsawwjt8-289">
          <mxGeometry relative="1" as="geometry" />
        </mxCell>
        <mxCell id="5cQ5xoeOof3CIsawwjt8-287" value="&lt;span style=&quot;font-family: Sarabun; text-align: left; text-wrap-mode: nowrap;&quot;&gt;&lt;font style=&quot;font-size: 12px;&quot;&gt;เหรียญ 2 ใช้หรือไม่&lt;/font&gt;&lt;/span&gt;" style="rhombus;whiteSpace=wrap;html=1;" vertex="1" parent="1">
          <mxGeometry x="-224.52" y="2090" width="140" height="70" as="geometry" />
        </mxCell>
        <mxCell id="5cQ5xoeOof3CIsawwjt8-288" value="ใช้" style="text;html=1;align=center;verticalAlign=middle;resizable=0;points=[];autosize=1;strokeColor=none;fillColor=none;" vertex="1" parent="1">
          <mxGeometry x="-204.52" y="2160" width="40" height="30" as="geometry" />
        </mxCell>
        <mxCell id="5cQ5xoeOof3CIsawwjt8-300" style="edgeStyle=orthogonalEdgeStyle;rounded=0;orthogonalLoop=1;jettySize=auto;html=1;entryX=0;entryY=0.5;entryDx=0;entryDy=0;" edge="1" parent="1" source="5cQ5xoeOof3CIsawwjt8-289" target="5cQ5xoeOof3CIsawwjt8-226">
          <mxGeometry relative="1" as="geometry">
            <Array as="points">
              <mxPoint x="-154" y="2290" />
              <mxPoint x="-20" y="2290" />
              <mxPoint x="-20" y="2235" />
            </Array>
          </mxGeometry>
        </mxCell>
        <mxCell id="5cQ5xoeOof3CIsawwjt8-289" value="&lt;span style=&quot;font-family: Sarabun; text-align: left; text-wrap-mode: nowrap;&quot;&gt;เหรียญ&amp;nbsp; 2&amp;nbsp;&lt;/span&gt;+ 1" style="whiteSpace=wrap;html=1;" vertex="1" parent="1">
          <mxGeometry x="-214.52" y="2200" width="120" height="60" as="geometry" />
        </mxCell>
        <mxCell id="5cQ5xoeOof3CIsawwjt8-290" value="ไม่" style="text;html=1;align=center;verticalAlign=middle;resizable=0;points=[];autosize=1;strokeColor=none;fillColor=none;" vertex="1" parent="1">
          <mxGeometry x="-279.68" y="2090" width="40" height="30" as="geometry" />
        </mxCell>
        <mxCell id="5cQ5xoeOof3CIsawwjt8-291" style="edgeStyle=orthogonalEdgeStyle;rounded=0;orthogonalLoop=1;jettySize=auto;html=1;entryX=0.5;entryY=0;entryDx=0;entryDy=0;" edge="1" parent="1" target="5cQ5xoeOof3CIsawwjt8-295">
          <mxGeometry relative="1" as="geometry">
            <mxPoint x="-224.52" y="2125" as="sourcePoint" />
            <mxPoint x="-339" y="2160" as="targetPoint" />
          </mxGeometry>
        </mxCell>
        <mxCell id="5cQ5xoeOof3CIsawwjt8-301" style="edgeStyle=orthogonalEdgeStyle;rounded=0;orthogonalLoop=1;jettySize=auto;html=1;entryX=0;entryY=0.5;entryDx=0;entryDy=0;" edge="1" parent="1" source="5cQ5xoeOof3CIsawwjt8-295" target="5cQ5xoeOof3CIsawwjt8-226">
          <mxGeometry relative="1" as="geometry">
            <Array as="points">
              <mxPoint x="-340" y="2320" />
              <mxPoint x="330" y="2320" />
              <mxPoint x="330" y="2235" />
            </Array>
          </mxGeometry>
        </mxCell>
        <mxCell id="5cQ5xoeOof3CIsawwjt8-295" value="&lt;span style=&quot;font-family: Sarabun; text-align: left; text-wrap-mode: nowrap;&quot;&gt;เหรียญ 1&amp;nbsp;&lt;/span&gt;+ 1" style="whiteSpace=wrap;html=1;" vertex="1" parent="1">
          <mxGeometry x="-399.68" y="2180" width="120" height="60" as="geometry" />
        </mxCell>
        <mxCell id="5cQ5xoeOof3CIsawwjt8-304" value="ใช้" style="text;html=1;align=center;verticalAlign=middle;resizable=0;points=[];autosize=1;strokeColor=none;fillColor=none;" vertex="1" parent="1">
          <mxGeometry x="445.64" y="2470" width="40" height="30" as="geometry" />
        </mxCell>
        <mxCell id="5cQ5xoeOof3CIsawwjt8-305" value="ไม่" style="text;html=1;align=center;verticalAlign=middle;resizable=0;points=[];autosize=1;strokeColor=none;fillColor=none;" vertex="1" parent="1">
          <mxGeometry x="309.82" y="2360" width="40" height="30" as="geometry" />
        </mxCell>
      </root>
    </mxGraphModel>
  </diagram>
</mxfile>
